<?xml version="1.0" encoding="UTF-8"?>
<svg width="24px" height="24px" viewBox="0 0 24 24" version="1.1" xmlns="http://www.w3.org/2000/svg" xmlns:xlink="http://www.w3.org/1999/xlink">
    <!-- Generator: Sketch 51.1 (57501) - http://www.bohemiancoding.com/sketch -->
    <title>Icons / Arrow / Left</title>
    <desc>Created with Sketch.</desc>
    <defs>
        <path d="M2.43552947,11.7672101 L2.39007919,11.8126604 L2.43552947,11.8581107 L2.5642751,11.8581107 L2.48663939,11.7804737 C2.50443574,11.7982754 2.50443574,11.8270454 2.48669278,11.8447937 L2.56427639,11.7672101 L2.43552947,11.7672101 Z M21.5456412,10.8581107 C22.0727499,10.8582161 22.5,11.2855517 22.5,11.8126604 C22.5,12.3398437 22.0726335,12.7672101 21.5454503,12.7672101 L4.75882615,12.7672101 L9.48687139,17.4953458 C9.73501287,17.7350089 9.83453042,18.0899137 9.74717438,18.4236524 C9.65981835,18.7573911 9.39918335,19.0180261 9.06544467,19.1053821 C8.731706,19.1927382 8.37680114,19.0932206 8.14322879,18.8512766 L1.77947923,12.4875271 C1.40684026,12.1147755 1.40684026,11.5105453 1.77953261,11.1377404 L8.14942628,4.76795347 C8.52397144,4.40620565 9.11932973,4.41137915 9.48753182,4.77958124 C9.85573391,5.14778334 9.86090741,5.74314162 9.49306888,6.12388428 L4.75884248,10.8581107 L21.5456412,10.8581107 Z" id="path-1"></path>
    </defs>
    <g id="Icons-/-Arrow-/-Left" stroke="none" stroke-width="1" fill="none" fill-rule="evenodd">
        <mask id="mask-2" fill="white">
            <use xlink:href="#path-1"></use>
        </mask>
        <use id="Mask" fill="#464646" fill-rule="nonzero" xlink:href="#path-1"></use>
        <g id="00.-Style-/-Color-/-Black-/-Warm-/-800" mask="url(#mask-2)" fill="#464646">
            <rect id="Color-/-Black-Warm-/-800" x="0" y="0" width="24" height="24"></rect>
        </g>
    </g>
</svg>