<?xml version="1.0" encoding="UTF-8"?>
<svg width="24px" height="24px" viewBox="0 0 24 24" version="1.1" xmlns="http://www.w3.org/2000/svg" xmlns:xlink="http://www.w3.org/1999/xlink">
    <!-- Generator: Sketch 51.1 (57501) - http://www.bohemiancoding.com/sketch -->
    <title>Icons / Download</title>
    <desc>Created with Sketch.</desc>
    <defs>
        <path d="M20.2,2 L4.2,2 C3.53755074,2.00070548 3.00070548,2.53755074 3,3.2 L3,20.8 C3.00070548,21.4624493 3.53755074,21.9992945 4.2,22 L20.2,22 C20.8624493,21.9992945 21.3992945,21.4624493 21.4,20.8 L21.4,3.2 C21.3992945,2.53755074 20.8624493,2.00070548 20.2,2 Z M15.4888889,18.4 L8.91111111,18.4 C8.68406071,18.4 8.5,18.1985281 8.5,17.95 C8.5,17.7014719 8.68406071,17.5 8.91111111,17.5 L15.4888889,17.5 C15.7159393,17.5 15.9,17.7014719 15.9,17.95 C15.9,18.1985281 15.7159393,18.4 15.4888889,18.4 Z M15.6828,12.2828 L12.4828,15.4828 C12.3266001,15.6389528 12.0733999,15.6389528 11.9172,15.4828 L8.7172,12.2828 C8.56561112,12.1258484 8.56777905,11.8763661 8.72207257,11.7220726 C8.87636609,11.5677791 9.12584845,11.5656111 9.2828,11.7172 L11.8,14.2344 L11.8,6.4 C11.8,6.1790861 11.9790861,6 12.2,6 C12.4209139,6 12.6,6.1790861 12.6,6.4 L12.6,14.2344 L15.1172,11.7172 C15.2741516,11.5656111 15.5236339,11.5677791 15.6779274,11.7220726 C15.8322209,11.8763661 15.8343889,12.1258484 15.6828,12.2828 Z" id="path-1"></path>
    </defs>
    <g id="Icons-/-Download" stroke="none" stroke-width="1" fill="none" fill-rule="evenodd">
        <mask id="mask-2" fill="white">
            <use xlink:href="#path-1"></use>
        </mask>
        <use id="Mask" fill="#232323" fill-rule="nonzero" xlink:href="#path-1"></use>
        <g id="00.-Style-/-Color-/-Black-/-Warm-/-800" mask="url(#mask-2)" fill="#464646">
            <rect id="Color-/-Black-Warm-/-800" x="0" y="0" width="24" height="24"></rect>
        </g>
    </g>
</svg>