<?xml version="1.0" encoding="UTF-8"?>
<svg width="24px" height="24px" viewBox="0 0 24 24" version="1.1" xmlns="http://www.w3.org/2000/svg" xmlns:xlink="http://www.w3.org/1999/xlink">
    <!-- Generator: Sketch 51.1 (57501) - http://www.bohemiancoding.com/sketch -->
    <title>Icons / Filter</title>
    <desc>Created with Sketch.</desc>
    <defs>
        <path d="M6.34905764,16.3478261 C6.34899864,17.3809226 5.6222553,18.2713772 4.61030614,18.4782609 L4.61030614,21.5652174 C4.61030614,21.8053412 4.41568975,22 4.17561827,22 C3.93554679,22 3.7409304,21.8053412 3.7409304,21.5652174 L3.7409304,18.4782609 C2.72796682,18.272525 2,17.3816877 2,16.3478261 C2,15.3139645 2.72796682,14.4231272 3.7409304,14.2173913 L3.7409304,2.43478261 C3.7409304,2.1946588 3.93554679,2 4.17561827,2 C4.41568975,2 4.61030614,2.1946588 4.61030614,2.43478261 L4.61030614,14.2173913 C5.6222553,14.424275 6.34899864,15.3147296 6.34905764,16.3478261 Z M20.2590696,10.7391304 L20.2590696,2.43478261 C20.2590696,2.1946588 20.0644532,2 19.8243817,2 C19.5843102,2 19.3896939,2.1946588 19.3896939,2.43478261 L19.3896939,10.7391304 C18.3767303,10.9448663 17.6487635,11.8357036 17.6487635,12.8695652 C17.6487635,13.9034268 18.3767303,14.7942641 19.3896939,15 L19.3896939,21.5652174 C19.3896939,21.8053412 19.5843102,22 19.8243817,22 C20.0644532,22 20.2590696,21.8053412 20.2590696,21.5652174 L20.2590696,15 C21.2720332,14.7942641 22,13.9034268 22,12.8695652 C22,11.8357036 21.2720332,10.9448663 20.2590696,10.7391304 Z M12.4346879,5.52173913 L12.4346879,2.43478261 C12.4346879,2.1946588 12.2400715,2 12,2 C11.7599285,2 11.5653121,2.1946588 11.5653121,2.43478261 L11.5653121,5.52173913 C10.5523486,5.72747499 9.82438173,6.61831234 9.82438173,7.65217391 C9.82438173,8.68603548 10.5523486,9.57687284 11.5653121,9.7826087 L11.5653121,21.5652174 C11.5653121,21.8053412 11.7599285,22 12,22 C12.2400715,22 12.4346879,21.8053412 12.4346879,21.5652174 L12.4346879,9.7826087 C13.4476514,9.57687284 14.1756183,8.68603548 14.1756183,7.65217391 C14.1756183,6.61831234 13.4476514,5.72747499 12.4346879,5.52173913 Z" id="path-1"></path>
    </defs>
    <g id="Icons-/-Filter" stroke="none" stroke-width="1" fill="none" fill-rule="evenodd">
        <mask id="mask-2" fill="white">
            <use xlink:href="#path-1"></use>
        </mask>
        <use id="Mask" fill="#232323" fill-rule="nonzero" transform="translate(12.000000, 12.000000) rotate(-270.000000) translate(-12.000000, -12.000000) " xlink:href="#path-1"></use>
        <g id="00.-Style-/-Color-/-Black-/-Warm-/-800" mask="url(#mask-2)" fill="#464646">
            <rect id="Color-/-Black-Warm-/-800" x="0" y="0" width="24" height="24"></rect>
        </g>
    </g>
</svg>