<?xml version="1.0" encoding="UTF-8"?>
<svg width="24px" height="24px" viewBox="0 0 24 24" version="1.1" xmlns="http://www.w3.org/2000/svg" xmlns:xlink="http://www.w3.org/1999/xlink">
    <!-- Generator: Sketch 51.1 (57501) - http://www.bohemiancoding.com/sketch -->
    <title>Icons / Help</title>
    <desc>Created with Sketch.</desc>
    <defs>
        <path d="M22,12 C22,14.6521649 20.9464316,17.195704 19.0710678,19.0710678 C17.195704,20.9464316 14.6521649,22 12,22 C6.4771525,22 2,17.5228475 2,12 C2,6.4771525 6.4771525,2 12,2 C17.5228475,2 22,6.4771525 22,12 Z M12.6249946,15.3181853 C12.6249946,11.8920522 15.8210143,12.3778472 15.8210143,9.18182755 C15.8210143,7.18751127 14.5170383,5.73012629 12.2670404,5.73012629 C10.1960197,5.73012629 8.58522576,7.00853416 8.58522576,9.18182755 L10.1960197,9.18182755 C10.1960197,7.67330626 11.218746,7.05967048 12.2670404,7.05967048 C13.4687438,7.05967048 14.2869249,7.85228336 14.2869249,9.10512307 C14.2869249,11.6363707 11.0909052,11.1505757 11.0909052,15.3181853 L12.6249946,15.3181853 Z M11.8579499,19.2045453 C12.522722,19.2045453 13.0852215,18.667614 13.0852215,17.9772737 C13.0852215,17.2869335 12.522722,16.724434 11.8579499,16.724434 C11.1676097,16.724434 10.6306784,17.2869335 10.6306784,17.9772737 C10.6306784,18.667614 11.1676097,19.2045453 11.8579499,19.2045453 Z" id="path-1"></path>
    </defs>
    <g id="Icons-/-Help" stroke="none" stroke-width="1" fill="none" fill-rule="evenodd">
        <mask id="mask-2" fill="white">
            <use xlink:href="#path-1"></use>
        </mask>
        <use id="Combined-Shape" fill="#232323" fill-rule="nonzero" xlink:href="#path-1"></use>
        <g id="00.-Style-/-Color-/-Black-Warm-/-800" mask="url(#mask-2)" fill="#464646">
            <rect id="Color-/-Black-Warm-/-800" x="0" y="0" width="24" height="24"></rect>
        </g>
    </g>
</svg>